{
  "accessors": [
    {
      "bufferView": 2,
      "componentType": 5126,
      "count": 65532,
      "max": [
        0.38071900606155396,
        0.9516839981079102,
        0.26547500491142273
      ],
      "min": [
        -0.38438400626182556,
        -0.9520140290260315,
        -0.427029013633728
      ],
      "type": "VEC3"
    },
    {
      "bufferView": 2,
      "byteOffset": 786384,
      "componentType": 5126,
      "count": 65532,
      "max": [
        0.999995231628418,
        0.9997654557228088,
        0.9999847412109375
      ],
      "min": [
        -0.9999732971191406,
        -1.0,
        -0.9999841451644897
      ],
      "type": "VEC3"
    },
    {
      "bufferView": 3,
      "componentType": 5126,
      "count": 65532,
      "max": [
        0.9999910593032837,
        0.9999914169311523,
        0.9999650120735168,
        1.0
      ],
      "min": [
        -0.9999943375587463,
        -0.9999927282333374,
        -0.9999338984489441,
        -1.0
      ],
      "type": "VEC4"
    },
    {
      "bufferView": 1,
      "componentType": 5126,
      "count": 65532,
      "max": [
        0.9944890141487122,
        0.9964799880981445
      ],
      "min": [
        0.0005540000274777412,
        0.00024002790451049805
      ],
      "type": "VEC2"
    },
    {
      "bufferView": 1,
      "byteOffset": 524256,
      "componentType": 5126,
      "count": 65532,
      "max": [
        0.9944890141487122,
        0.9964799880981445
      ],
      "min": [
        0.0005540000274777412,
        0.00024002790451049805
      ],
      "type": "VEC2"
    },
    {
      "bufferView": 1,
      "byteOffset": 1048512,
      "componentType": 5126,
      "count": 65532,
      "max": [
        0.9944890141487122,
        0.9964799880981445
      ],
      "min": [
        0.0005540000274777412,
        0.00024002790451049805
      ],
      "type": "VEC2"
    },
    {
      "bufferView": 1,
      "byteOffset": 1572768,
      "componentType": 5126,
      "count": 65532,
      "max": [
        0.9944890141487122,
        0.9964799880981445
      ],
      "min": [
        0.0005540000274777412,
        0.00024002790451049805
      ],
      "type": "VEC2"
    },
    {
      "bufferView": 0,
      "componentType": 5125,
      "count": 341625,
      "type": "SCALAR"
    },
    {
      "bufferView": 2,
      "byteOffset": 1572768,
      "componentType": 5126,
      "count": 65532,
      "max": [
        0.25976601243019104,
        0.9477199912071228,
        0.28908899426460266
      ],
      "min": [
        -0.3466910123825073,
        -0.9520360231399536,
        -0.4113140106201172
      ],
      "type": "VEC3"
    },
    {
      "bufferView": 2,
      "byteOffset": 2359152,
      "componentType": 5126,
      "count": 65532,
      "max": [
        0.999992847442627,
        0.9999656677246094,
        0.9999579191207886
      ],
      "min": [
        -0.9999645948410034,
        -1.0,
        -0.9999887943267822
      ],
      "type": "VEC3"
    },
    {
      "bufferView": 3,
      "byteOffset": 1048512,
      "componentType": 5126,
      "count": 65532,
      "max": [
        0.9999875426292419,
        0.9999982118606567,
        0.9999903440475464,
        1.0
      ],
      "min": [
        -0.9999918341636658,
        -0.9999970197677612,
        -0.9996885061264038,
        -1.0
      ],
      "type": "VEC4"
    },
    {
      "bufferView": 1,
      "byteOffset": 2097024,
      "componentType": 5126,
      "count": 65532,
      "max": [
        0.995274007320404,
        0.9972649812698364
      ],
      "min": [
        0.00016500000492669642,
        0.006794989109039307
      ],
      "type": "VEC2"
    },
    {
      "bufferView": 1,
      "byteOffset": 2621280,
      "componentType": 5126,
      "count": 65532,
      "max": [
        0.995274007320404,
        0.9972649812698364
      ],
      "min": [
        0.00016500000492669642,
        0.006794989109039307
      ],
      "type": "VEC2"
    },
    {
      "bufferView": 1,
      "byteOffset": 3145536,
      "componentType": 5126,
      "count": 65532,
      "max": [
        0.995274007320404,
        0.9972649812698364
      ],
      "min": [
        0.00016500000492669642,
        0.006794989109039307
      ],
      "type": "VEC2"
    },
    {
      "bufferView": 1,
      "byteOffset": 3669792,
      "componentType": 5126,
      "count": 65532,
      "max": [
        0.995274007320404,
        0.9972649812698364
      ],
      "min": [
        0.00016500000492669642,
        0.006794989109039307
      ],
      "type": "VEC2"
    },
    {
      "bufferView": 0,
      "byteOffset": 1366500,
      "componentType": 5125,
      "count": 344304,
      "type": "SCALAR"
    },
    {
      "bufferView": 2,
      "byteOffset": 3145536,
      "componentType": 5126,
      "count": 65532,
      "max": [
        0.3743000030517578,
        0.9168630242347717,
        0.40880098938941956
      ],
      "min": [
        -0.38438400626182556,
        -0.9520090222358704,
        -0.37447699904441833
      ],
      "type": "VEC3"
    },
    {
      "bufferView": 2,
      "byteOffset": 3931920,
      "componentType": 5126,
      "count": 65532,
      "max": [
        0.999995231628418,
        0.9998312592506409,
        0.9999940395355225
      ],
      "min": [
        -0.9999974966049194,
        -0.9999996423721313,
        -0.99997878074646
      ],
      "type": "VEC3"
    },
    {
      "bufferView": 3,
      "byteOffset": 2097024,
      "componentType": 5126,
      "count": 65532,
      "max": [
        0.9999615550041199,
        0.9999966025352478,
        0.999941349029541,
        1.0
      ],
      "min": [
        -0.9999353289604187,
        -0.9999611377716064,
        -0.9998947381973267,
        -1.0
      ],
      "type": "VEC4"
    },
    {
      "bufferView": 1,
      "byteOffset": 4194048,
      "componentType": 5126,
      "count": 65532,
      "max": [
        0.992796003818512,
        0.9966530203819275
      ],
      "min": [
        0.007538000121712685,
        0.002128005027770996
      ],
      "type": "VEC2"
    },
    {
      "bufferView": 1,
      "byteOffset": 4718304,
      "componentType": 5126,
      "count": 65532,
      "max": [
        0.992796003818512,
        0.9966530203819275
      ],
      "min": [
        0.007538000121712685,
        0.002128005027770996
      ],
      "type": "VEC2"
    },
    {
      "bufferView": 1,
      "byteOffset": 5242560,
      "componentType": 5126,
      "count": 65532,
      "max": [
        0.992796003818512,
        0.9966530203819275
      ],
      "min": [
        0.007538000121712685,
        0.002128005027770996
      ],
      "type": "VEC2"
    },
    {
      "bufferView": 1,
      "byteOffset": 5766816,
      "componentType": 5126,
      "count": 65532,
      "max": [
        0.992796003818512,
        0.9966530203819275
      ],
      "min": [
        0.007538000121712685,
        0.002128005027770996
      ],
      "type": "VEC2"
    },
    {
      "bufferView": 0,
      "byteOffset": 2743716,
      "componentType": 5125,
      "count": 342621,
      "type": "SCALAR"
    },
    {
      "bufferView": 2,
      "byteOffset": 4718304,
      "componentType": 5126,
      "count": 65532,
      "max": [
        0.3092690110206604,
        0.9013980031013489,
        0.4170039892196655
      ],
      "min": [
        -0.3634819984436035,
        -0.8194260001182556,
        -0.3529900014400482
      ],
      "type": "VEC3"
    },
    {
      "bufferView": 2,
      "byteOffset": 5504688,
      "componentType": 5126,
      "count": 65532,
      "max": [
        0.9999994039535522,
        0.9999679327011108,
        0.9999493360519409
      ],
      "min": [
        -0.9999877214431763,
        -0.9999916553497314,
        -0.9999092817306519
      ],
      "type": "VEC3"
    },
    {
      "bufferView": 3,
      "byteOffset": 3145536,
      "componentType": 5126,
      "count": 65532,
      "max": [
        0.9999816417694092,
        0.9999605417251587,
        0.9999764561653137,
        1.0
      ],
      "min": [
        -0.9998661875724792,
        -0.9999927282333374,
        -0.9999791383743286,
        -1.0
      ],
      "type": "VEC4"
    },
    {
      "bufferView": 1,
      "byteOffset": 6291072,
      "componentType": 5126,
      "count": 65532,
      "max": [
        0.996491014957428,
        0.999921977519989
      ],
      "min": [
        1.4999999621068127e-05,
        0.0005450248718261719
      ],
      "type": "VEC2"
    },
    {
      "bufferView": 1,
      "byteOffset": 6815328,
      "componentType": 5126,
      "count": 65532,
      "max": [
        0.996491014957428,
        0.999921977519989
      ],
      "min": [
        1.4999999621068127e-05,
        0.0005450248718261719
      ],
      "type": "VEC2"
    },
    {
      "bufferView": 1,
      "byteOffset": 7339584,
      "componentType": 5126,
      "count": 65532,
      "max": [
        0.996491014957428,
        0.999921977519989
      ],
      "min": [
        1.4999999621068127e-05,
        0.0005450248718261719
      ],
      "type": "VEC2"
    },
    {
      "bufferView": 1,
      "byteOffset": 7863840,
      "componentType": 5126,
      "count": 65532,
      "max": [
        0.996491014957428,
        0.999921977519989
      ],
      "min": [
        1.4999999621068127e-05,
        0.0005450248718261719
      ],
      "type": "VEC2"
    },
    {
      "bufferView": 0,
      "byteOffset": 4114200,
      "componentType": 5125,
      "count": 330873,
      "type": "SCALAR"
    },
    {
      "bufferView": 2,
      "byteOffset": 6291072,
      "componentType": 5126,
      "count": 65532,
      "max": [
        0.25788798928260803,
        0.8514750003814697,
        0.41185900568962097
      ],
      "min": [
        -0.38438400626182556,
        -0.9520360231399536,
        -0.20390699803829193
      ],
      "type": "VEC3"
    },
    {
      "bufferView": 2,
      "byteOffset": 7077456,
      "componentType": 5126,
      "count": 65532,
      "max": [
        0.999992847442627,
        0.999975860118866,
        0.9999814033508301
      ],
      "min": [
        -0.9999754428863525,
        -0.9999986886978149,
        -0.9998502135276794
      ],
      "type": "VEC3"
    },
    {
      "bufferView": 3,
      "byteOffset": 4194048,
      "componentType": 5126,
      "count": 65532,
      "max": [
        0.9999170899391174,
        1.0,
        0.9999387264251709,
        1.0
      ],
      "min": [
        -0.9999420046806335,
        -0.9999642968177795,
        -0.999983549118042,
        -1.0
      ],
      "type": "VEC4"
    },
    {
      "bufferView": 1,
      "byteOffset": 8388096,
      "componentType": 5126,
      "count": 65532,
      "max": [
        0.9957900047302246,
        0.999871015548706
      ],
      "min": [
        0.00010299999848939478,
        3.3020973205566406e-05
      ],
      "type": "VEC2"
    },
    {
      "bufferView": 1,
      "byteOffset": 8912352,
      "componentType": 5126,
      "count": 65532,
      "max": [
        0.9957900047302246,
        0.999871015548706
      ],
      "min": [
        0.00010299999848939478,
        3.3020973205566406e-05
      ],
      "type": "VEC2"
    },
    {
      "bufferView": 1,
      "byteOffset": 9436608,
      "componentType": 5126,
      "count": 65532,
      "max": [
        0.9957900047302246,
        0.999871015548706
      ],
      "min": [
        0.00010299999848939478,
        3.3020973205566406e-05
      ],
      "type": "VEC2"
    },
    {
      "bufferView": 1,
      "byteOffset": 9960864,
      "componentType": 5126,
      "count": 65532,
      "max": [
        0.9957900047302246,
        0.999871015548706
      ],
      "min": [
        0.00010299999848939478,
        3.3020973205566406e-05
      ],
      "type": "VEC2"
    },
    {
      "bufferView": 0,
      "byteOffset": 5437692,
      "componentType": 5125,
      "count": 312240,
      "type": "SCALAR"
    },
    {
      "bufferView": 2,
      "byteOffset": 7863840,
      "componentType": 5126,
      "count": 65532,
      "max": [
        0.3779590129852295,
        0.9516839981079102,
        0.03347399830818176
      ],
      "min": [
        -0.34686100482940674,
        -0.9520210027694702,
        -0.4287570118904114
      ],
      "type": "VEC3"
    },
    {
      "bufferView": 2,
      "byteOffset": 8650224,
      "componentType": 5126,
      "count": 65532,
      "max": [
        0.9999921321868896,
        0.9999630451202393,
        0.9999890327453613
      ],
      "min": [
        -0.999992847442627,
        -1.0,
        -0.9999992847442627
      ],
      "type": "VEC3"
    },
    {
      "bufferView": 3,
      "byteOffset": 5242560,
      "componentType": 5126,
      "count": 65532,
      "max": [
        0.9999875426292419,
        0.999977707862854,
        0.9999135732650757,
        1.0
      ],
      "min": [
        -0.9999670386314392,
        -0.999994158744812,
        -0.9999932050704956,
        -1.0
      ],
      "type": "VEC4"
    },
    {
      "bufferView": 1,
      "byteOffset": 10485120,
      "componentType": 5126,
      "count": 65532,
      "max": [
        0.9989690184593201,
        0.999879002571106
      ],
      "min": [
        0.0010839999886229634,
        0.0010920166969299316
      ],
      "type": "VEC2"
    },
    {
      "bufferView": 1,
      "byteOffset": 11009376,
      "componentType": 5126,
      "count": 65532,
      "max": [
        0.9989690184593201,
        0.999879002571106
      ],
      "min": [
        0.0010839999886229634,
        0.0010920166969299316
      ],
      "type": "VEC2"
    },
    {
      "bufferView": 1,
      "byteOffset": 11533632,
      "componentType": 5126,
      "count": 65532,
      "max": [
        0.9989690184593201,
        0.999879002571106
      ],
      "min": [
        0.0010839999886229634,
        0.0010920166969299316
      ],
      "type": "VEC2"
    },
    {
      "bufferView": 1,
      "byteOffset": 12057888,
      "componentType": 5126,
      "count": 65532,
      "max": [
        0.9989690184593201,
        0.999879002571106
      ],
      "min": [
        0.0010839999886229634,
        0.0010920166969299316
      ],
      "type": "VEC2"
    },
    {
      "bufferView": 0,
      "byteOffset": 6686652,
      "componentType": 5125,
      "count": 284550,
      "type": "SCALAR"
    },
    {
      "bufferView": 2,
      "byteOffset": 9436608,
      "componentType": 5126,
      "count": 31203,
      "max": [
        0.24587200582027435,
        0.9117159843444824,
        0.06360799819231033
      ],
      "min": [
        -0.38349300622940063,
        -0.9519820213317871,
        -0.07684499770402908
      ],
      "type": "VEC3"
    },
    {
      "bufferView": 2,
      "byteOffset": 9811044,
      "componentType": 5126,
      "count": 31203,
      "max": [
        0.9999720454216003,
        0.9999656677246094,
        0.9999450445175171
      ],
      "min": [
        -0.9999672174453735,
        -0.9998657703399658,
        -0.998113214969635
      ],
      "type": "VEC3"
    },
    {
      "bufferView": 3,
      "byteOffset": 6291072,
      "componentType": 5126,
      "count": 31203,
      "max": [
        0.999701976776123,
        0.9998867511749268,
        0.9999985694885254,
        1.0
      ],
      "min": [
        -0.999987781047821,
        -0.999957263469696,
        -0.9998561143875122,
        -1.0
      ],
      "type": "VEC4"
    },
    {
      "bufferView": 1,
      "byteOffset": 12582144,
      "componentType": 5126,
      "count": 31203,
      "max": [
        0.9959179759025574,
        0.9992899894714355
      ],
      "min": [
        0.00012099999730708078,
        0.0006499886512756348
      ],
      "type": "VEC2"
    },
    {
      "bufferView": 1,
      "byteOffset": 12831768,
      "componentType": 5126,
      "count": 31203,
      "max": [
        0.9959179759025574,
        0.9992899894714355
      ],
      "min": [
        0.00012099999730708078,
        0.0006499886512756348
      ],
      "type": "VEC2"
    },
    {
      "bufferView": 1,
      "byteOffset": 13081392,
      "componentType": 5126,
      "count": 31203,
      "max": [
        0.9959179759025574,
        0.9992899894714355
      ],
      "min": [
        0.00012099999730708078,
        0.0006499886512756348
      ],
      "type": "VEC2"
    },
    {
      "bufferView": 1,
      "byteOffset": 13331016,
      "componentType": 5126,
      "count": 31203,
      "max": [
        0.9959179759025574,
        0.9992899894714355
      ],
      "min": [
        0.00012099999730708078,
        0.0006499886512756348
      ],
      "type": "VEC2"
    },
    {
      "bufferView": 0,
      "byteOffset": 7824852,
      "componentType": 5125,
      "count": 121116,
      "type": "SCALAR"
    }
  ],
  "asset": {
    "extras": {
      "author": "IITheDarkness94II (https://sketchfab.com/IITheDarkness94II)",
      "license": "CC-BY-4.0 (http://creativecommons.org/licenses/by/4.0/)",
      "source": "https://sketchfab.com/3d-models/carlos-oliveira-resident-evil-3-nemesis-9a5aec0cdb2a41afb7590484b0f26321",
      "title": "Carlos Oliveira (Resident Evil 3 Nemesis)"
    },
    "generator": "Sketchfab-16.74.0",
    "version": "2.0"
  },
  "bufferViews": [
    {
      "buffer": 0,
      "byteLength": 8309316,
      "name": "floatBufferViews",
      "target": 34963
    },
    {
      "buffer": 0,
      "byteLength": 13580640,
      "byteOffset": 8309316,
      "byteStride": 8,
      "name": "floatBufferViews",
      "target": 34962
    },
    {
      "buffer": 0,
      "byteLength": 10185480,
      "byteOffset": 21889956,
      "byteStride": 12,
      "name": "floatBufferViews",
      "target": 34962
    },
    {
      "buffer": 0,
      "byteLength": 6790320,
      "byteOffset": 32075436,
      "byteStride": 16,
      "name": "floatBufferViews",
      "target": 34962
    }
  ],
  "buffers": [
    {
      "byteLength": 38865756,
      "uri": "scene.bin"
    }
  ],
  "images": [
    {
      "uri": "textures/material_0_baseColor.jpeg"
    },
    {
      "uri": "textures/material_0_metallicRoughness.png"
    },
    {
      "uri": "textures/material_0_normal.jpeg"
    }
  ],
  "materials": [
    {
      "doubleSided": true,
      "name": "material_0",
      "normalTexture": {
        "index": 2,
        "texCoord": 2
      },
      "pbrMetallicRoughness": {
        "baseColorTexture": {
          "index": 0
        },
        "metallicRoughnessTexture": {
          "index": 1,
          "texCoord": 1
        }
      }
    }
  ],
  "meshes": [
    {
      "name": "Object_0",
      "primitives": [
        {
          "attributes": {
            "NORMAL": 1,
            "POSITION": 0,
            "TANGENT": 2,
            "TEXCOORD_0": 3,
            "TEXCOORD_1": 4,
            "TEXCOORD_2": 5,
            "TEXCOORD_3": 6
          },
          "indices": 7,
          "material": 0,
          "mode": 4
        }
      ]
    },
    {
      "name": "Object_1",
      "primitives": [
        {
          "attributes": {
            "NORMAL": 9,
            "POSITION": 8,
            "TANGENT": 10,
            "TEXCOORD_0": 11,
            "TEXCOORD_1": 12,
            "TEXCOORD_2": 13,
            "TEXCOORD_3": 14
          },
          "indices": 15,
          "material": 0,
          "mode": 4
        }
      ]
    },
    {
      "name": "Object_2",
      "primitives": [
        {
          "attributes": {
            "NORMAL": 17,
            "POSITION": 16,
            "TANGENT": 18,
            "TEXCOORD_0": 19,
            "TEXCOORD_1": 20,
            "TEXCOORD_2": 21,
            "TEXCOORD_3": 22
          },
          "indices": 23,
          "material": 0,
          "mode": 4
        }
      ]
    },
    {
      "name": "Object_3",
      "primitives": [
        {
          "attributes": {
            "NORMAL": 25,
            "POSITION": 24,
            "TANGENT": 26,
            "TEXCOORD_0": 27,
            "TEXCOORD_1": 28,
            "TEXCOORD_2": 29,
            "TEXCOORD_3": 30
          },
          "indices": 31,
          "material": 0,
          "mode": 4
        }
      ]
    },
    {
      "name": "Object_4",
      "primitives": [
        {
          "attributes": {
            "NORMAL": 33,
            "POSITION": 32,
            "TANGENT": 34,
            "TEXCOORD_0": 35,
            "TEXCOORD_1": 36,
            "TEXCOORD_2": 37,
            "TEXCOORD_3": 38
          },
          "indices": 39,
          "material": 0,
          "mode": 4
        }
      ]
    },
    {
      "name": "Object_5",
      "primitives": [
        {
          "attributes": {
            "NORMAL": 41,
            "POSITION": 40,
            "TANGENT": 42,
            "TEXCOORD_0": 43,
            "TEXCOORD_1": 44,
            "TEXCOORD_2": 45,
            "TEXCOORD_3": 46
          },
          "indices": 47,
          "material": 0,
          "mode": 4
        }
      ]
    },
    {
      "name": "Object_6",
      "primitives": [
        {
          "attributes": {
            "NORMAL": 49,
            "POSITION": 48,
            "TANGENT": 50,
            "TEXCOORD_0": 51,
            "TEXCOORD_1": 52,
            "TEXCOORD_2": 53,
            "TEXCOORD_3": 54
          },
          "indices": 55,
          "material": 0,
          "mode": 4
        }
      ]
    }
  ],
  "nodes": [
    {
      "children": [
        1
      ],
      "matrix": [
        1.0,
        0.0,
        0.0,
        0.0,
        0.0,
        2.220446049250313e-16,
        -1.0,
        0.0,
        0.0,
        1.0,
        2.220446049250313e-16,
        0.0,
        0.0,
        0.0,
        0.0,
        1.0
      ],
      "name": "Sketchfab_model"
    },
    {
      "children": [
        2
      ],
      "name": "root"
    },
    {
      "children": [
        3
      ],
      "matrix": [
        1.0,
        0.0,
        0.0,
        0.0,
        0.0,
        2.220446049250313e-16,
        1.0,
        0.0,
        0.0,
        -1.0,
        2.220446049250313e-16,
        0.0,
        0.0,
        0.0,
        0.0,
        1.0
      ],
      "name": "GLTF_SceneRootNode"
    },
    {
      "children": [
        4,
        5,
        6,
        7,
        8,
        9,
        10
      ],
      "name": "_0"
    },
    {
      "mesh": 0,
      "name": "Object_4"
    },
    {
      "mesh": 1,
      "name": "Object_5"
    },
    {
      "mesh": 2,
      "name": "Object_6"
    },
    {
      "mesh": 3,
      "name": "Object_7"
    },
    {
      "mesh": 4,
      "name": "Object_8"
    },
    {
      "mesh": 5,
      "name": "Object_9"
    },
    {
      "mesh": 6,
      "name": "Object_10"
    }
  ],
  "samplers": [
    {
      "magFilter": 9729,
      "minFilter": 9987,
      "wrapS": 10497,
      "wrapT": 10497
    }
  ],
  "scene": 0,
  "scenes": [
    {
      "name": "Sketchfab_Scene",
      "nodes": [
        0
      ]
    }
  ],
  "textures": [
    {
      "sampler": 0,
      "source": 0
    },
    {
      "sampler": 0,
      "source": 1
    },
    {
      "sampler": 0,
      "source": 2
    }
  ]
}
