{
  "accessors": [
    {
      "bufferView": 2,
      "componentType": 5126,
      "count": 2862,
      "max": [
        1.5568277835845947,
        0.521747887134552,
        0.26682665944099426
      ],
      "min": [
        -3.612363815307617,
        -0.5477489829063416,
        -0.2668265998363495
      ],
      "type": "VEC3"
    },
    {
      "bufferView": 2,
      "byteOffset": 34344,
      "componentType": 5126,
      "count": 2862,
      "max": [
        1.0,
        1.0,
        1.0
      ],
      "min": [
        -1.0,
        -1.0,
        -1.0
      ],
      "type": "VEC3"
    },
    {
      "bufferView": 3,
      "componentType": 5126,
      "count": 2862,
      "max": [
        1.0,
        0.9995742440223694,
        1.0,
        1.0
      ],
      "min": [
        -0.9977713227272034,
        -0.9994974136352539,
        -1.0,
        -1.0
      ],
      "type": "VEC4"
    },
    {
      "bufferView": 1,
      "componentType": 5126,
      "count": 2862,
      "max": [
        0.8089724779129028,
        0.9996394515037537
      ],
      "min": [
        0.0003606234095059335,
        0.0003606234095059335
      ],
      "type": "VEC2"
    },
    {
      "bufferView": 0,
      "componentType": 5125,
      "count": 8556,
      "type": "SCALAR"
    },
    {
      "bufferView": 2,
      "byteOffset": 68688,
      "componentType": 5126,
      "count": 72,
      "max": [
        -1.0031934976577759,
        0.10010303556919098,
        0.026290368288755417
      ],
      "min": [
        -3.612363815307617,
        -0.3102717399597168,
        -0.02629425749182701
      ],
      "type": "VEC3"
    },
    {
      "bufferView": 2,
      "byteOffset": 69552,
      "componentType": 5126,
      "count": 72,
      "max": [
        0.005467584356665611,
        -0.039607517421245575,
        0.9992003440856934
      ],
      "min": [
        -0.07159308344125748,
        -0.11653516441583633,
        -0.9992003440856934
      ],
      "type": "VEC3"
    },
    {
      "bufferView": 1,
      "byteOffset": 22896,
      "componentType": 5126,
      "count": 72,
      "max": [
        0.626152753829956,
        0.4938124716281891
      ],
      "min": [
        0.5049945116043091,
        0.0003606234095059335
      ],
      "type": "VEC2"
    },
    {
      "bufferView": 0,
      "byteOffset": 34224,
      "componentType": 5125,
      "count": 204,
      "type": "SCALAR"
    },
    {
      "bufferView": 2,
      "byteOffset": 70416,
      "componentType": 5126,
      "count": 384,
      "max": [
        1.0975077152252197,
        0.1794767677783966,
        0.1924772709608078
      ],
      "min": [
        -0.2681456208229065,
        -0.205477774143219,
        -0.1924772709608078
      ],
      "type": "VEC3"
    },
    {
      "bufferView": 2,
      "byteOffset": 75024,
      "componentType": 5126,
      "count": 384,
      "max": [
        3.0741117029720044e-07,
        1.0,
        1.0
      ],
      "min": [
        -0.0402037538588047,
        -1.0,
        -1.0
      ],
      "type": "VEC3"
    },
    {
      "bufferView": 1,
      "byteOffset": 23472,
      "componentType": 5126,
      "count": 384,
      "max": [
        0.49031636118888855,
        0.6662160754203796
      ],
      "min": [
        0.2500356137752533,
        0.5032772421836853
      ],
      "type": "VEC2"
    },
    {
      "bufferView": 0,
      "byteOffset": 35040,
      "componentType": 5125,
      "count": 1152,
      "type": "SCALAR"
    }
  ],
  "asset": {
    "extras": {
      "author": "TutosN (https://sketchfab.com/Tutos_N)",
      "license": "CC-BY-4.0 (http://creativecommons.org/licenses/by/4.0/)",
      "source": "https://sketchfab.com/3d-models/cuchillo-de-combate-combat-knife-d4099def918b4abe851654b3242cc2f2",
      "title": "Cuchillo de combate - Combat Knife"
    },
    "generator": "Sketchfab-15.26.0",
    "version": "2.0"
  },
  "bufferViews": [
    {
      "buffer": 0,
      "byteLength": 39648,
      "name": "floatBufferViews",
      "target": 34963
    },
    {
      "buffer": 0,
      "byteLength": 26544,
      "byteOffset": 39648,
      "byteStride": 8,
      "name": "floatBufferViews",
      "target": 34962
    },
    {
      "buffer": 0,
      "byteLength": 79632,
      "byteOffset": 66192,
      "byteStride": 12,
      "name": "floatBufferViews",
      "target": 34962
    },
    {
      "buffer": 0,
      "byteLength": 45792,
      "byteOffset": 145824,
      "byteStride": 16,
      "name": "floatBufferViews",
      "target": 34962
    }
  ],
  "buffers": [
    {
      "byteLength": 191616,
      "uri": "scene.bin"
    }
  ],
  "images": [
    {
      "uri": "textures/Material.003_baseColor.png"
    },
    {
      "uri": "textures/Material.003_metallicRoughness.png"
    },
    {
      "uri": "textures/Material.003_normal.png"
    }
  ],
  "materials": [
    {
      "doubleSided": true,
      "name": "Material.003",
      "normalTexture": {
        "index": 2
      },
      "pbrMetallicRoughness": {
        "baseColorTexture": {
          "index": 0
        },
        "metallicRoughnessTexture": {
          "index": 1
        }
      }
    },
    {
      "doubleSided": true,
      "name": "Material.002",
      "pbrMetallicRoughness": {
        "baseColorFactor": [
          0.27119792872178344,
          0.27119792872178344,
          0.27119792872178344,
          1.0
        ],
        "roughnessFactor": 0.1788854381999832
      }
    },
    {
      "doubleSided": true,
      "name": "Material.001",
      "pbrMetallicRoughness": {
        "baseColorFactor": [
          0.08515277748376329,
          0.08515277748376329,
          0.08515277748376329,
          1.0
        ],
        "roughnessFactor": 0.1788854381999832
      }
    }
  ],
  "meshes": [
    {
      "name": "Circle.002_Material.003_0",
      "primitives": [
        {
          "attributes": {
            "NORMAL": 1,
            "POSITION": 0,
            "TANGENT": 2,
            "TEXCOORD_0": 3
          },
          "indices": 4,
          "material": 0,
          "mode": 4
        }
      ]
    },
    {
      "name": "Circle.002_Material.002_0",
      "primitives": [
        {
          "attributes": {
            "NORMAL": 6,
            "POSITION": 5,
            "TEXCOORD_0": 7
          },
          "indices": 8,
          "material": 1,
          "mode": 4
        }
      ]
    },
    {
      "name": "Circle.002_Material.001_0",
      "primitives": [
        {
          "attributes": {
            "NORMAL": 10,
            "POSITION": 9,
            "TEXCOORD_0": 11
          },
          "indices": 12,
          "material": 2,
          "mode": 4
        }
      ]
    }
  ],
  "nodes": [
    {
      "children": [
        1
      ],
      "matrix": [
        1.0,
        0.0,
        0.0,
        0.0,
        0.0,
        2.220446049250313e-16,
        -1.0,
        0.0,
        0.0,
        1.0,
        2.220446049250313e-16,
        0.0,
        0.0,
        0.0,
        0.0,
        1.0
      ],
      "name": "Sketchfab_model"
    },
    {
      "children": [
        2
      ],
      "matrix": [
        0.009999999776482582,
        0.0,
        0.0,
        0.0,
        0.0,
        0.0,
        0.009999999776482582,
        0.0,
        0.0,
        -0.009999999776482582,
        0.0,
        0.0,
        0.0,
        0.0,
        0.0,
        1.0
      ],
      "name": "1ee0fada6add446586fa4f3e6057c1c0.fbx"
    },
    {
      "children": [
        3
      ],
      "name": "RootNode"
    },
    {
      "children": [
        4,
        5,
        6
      ],
      "matrix": [
        70.71067657322372,
        70.71067966408575,
        -2.747288687289949e-13,
        0.0,
        -70.71067966408569,
        70.71067657322365,
        4.371138828673793e-06,
        0.0,
        3.0908621690786366e-06,
        -3.090861645447475e-06,
        99.9999999999999,
        0.0,
        291.2814636230469,
        -1.8577493392513134e-06,
        4.365345001220703,
        1.0
      ],
      "name": "Circle.002"
    },
    {
      "mesh": 0,
      "name": "Circle.002_Material.003_0"
    },
    {
      "mesh": 1,
      "name": "Circle.002_Material.002_0"
    },
    {
      "mesh": 2,
      "name": "Circle.002_Material.001_0"
    }
  ],
  "samplers": [
    {
      "magFilter": 9729,
      "minFilter": 9987,
      "wrapS": 10497,
      "wrapT": 10497
    }
  ],
  "scene": 0,
  "scenes": [
    {
      "name": "Sketchfab_Scene",
      "nodes": [
        0
      ]
    }
  ],
  "textures": [
    {
      "sampler": 0,
      "source": 0
    },
    {
      "sampler": 0,
      "source": 1
    },
    {
      "sampler": 0,
      "source": 2
    }
  ]
}
