{
  "accessors": [
    {
      "bufferView": 2,
      "componentType": 5126,
      "count": 6,
      "max": [
        942.760009765625,
        -694.4110107421875,
        1522.43994140625
      ],
      "min": [
        -946.2650146484375,
        -703.8800048828125,
        1420.1800537109375
      ],
      "type": "VEC3"
    },
    {
      "bufferView": 2,
      "byteOffset": 72,
      "componentType": 5126,
      "count": 6,
      "max": [
        0.869901716709137,
        -0.42494285106658936,
        -0.2503889203071594
      ],
      "min": [
        -0.869901716709137,
        -0.42494285106658936,
        -0.2503889203071594
      ],
      "type": "VEC3"
    },
    {
      "bufferView": 1,
      "componentType": 5126,
      "count": 6,
      "max": [
        114.89800262451172,
        82.86090087890625
      ],
      "min": [
        -162.01199340820313,
        54.039398193359375
      ],
      "type": "VEC2"
    },
    {
      "bufferView": 0,
      "componentType": 5125,
      "count": 6,
      "type": "SCALAR"
    },
    {
      "bufferView": 2,
      "byteOffset": 144,
      "componentType": 5126,
      "count": 598,
      "max": [
        963.8759765625,
        -1420.27001953125,
        1445.27001953125
      ],
      "min": [
        -968.5390014648438,
        -1502.0400390625,
        1385.719970703125
      ],
      "type": "VEC3"
    },
    {
      "bufferView": 2,
      "byteOffset": 7320,
      "componentType": 5126,
      "count": 598,
      "max": [
        0.9473256468772888,
        0.9772544503211975,
        0.9922782182693481
      ],
      "min": [
        -0.9473256468772888,
        -0.9772527813911438,
        -0.948328971862793
      ],
      "type": "VEC3"
    },
    {
      "bufferView": 1,
      "byteOffset": 48,
      "componentType": 5126,
      "count": 598,
      "max": [
        3.2568399906158447,
        2.4986701011657715
      ],
      "min": [
        -2.3603999614715576,
        -1.754930019378662
      ],
      "type": "VEC2"
    },
    {
      "bufferView": 0,
      "byteOffset": 24,
      "componentType": 5125,
      "count": 1341,
      "type": "SCALAR"
    },
    {
      "bufferView": 2,
      "byteOffset": 14496,
      "componentType": 5126,
      "count": 96,
      "max": [
        885.7969970703125,
        1547.260009765625,
        2248.570068359375
      ],
      "min": [
        -869.5640258789063,
        -2192.489990234375,
        1028.0699462890625
      ],
      "type": "VEC3"
    },
    {
      "bufferView": 2,
      "byteOffset": 15648,
      "componentType": 5126,
      "count": 96,
      "max": [
        2.0577599346705e-10,
        0.995182991027832,
        0.999710738658905
      ],
      "min": [
        -7.857938713748558e-18,
        -0.024050895124673843,
        -0.999710738658905
      ],
      "type": "VEC3"
    },
    {
      "bufferView": 1,
      "byteOffset": 4832,
      "componentType": 5126,
      "count": 96,
      "max": [
        11.968500137329102,
        8.42473030090332
      ],
      "min": [
        -11.968500137329102,
        -11.961600303649902
      ],
      "type": "VEC2"
    },
    {
      "bufferView": 0,
      "byteOffset": 5388,
      "componentType": 5125,
      "count": 252,
      "type": "SCALAR"
    },
    {
      "bufferView": 2,
      "byteOffset": 16800,
      "componentType": 5126,
      "count": 1817,
      "max": [
        445.7090148925781,
        1884.0,
        2745.320068359375
      ],
      "min": [
        -446.88299560546875,
        -286.1180114746094,
        2093.300048828125
      ],
      "type": "VEC3"
    },
    {
      "bufferView": 2,
      "byteOffset": 38604,
      "componentType": 5126,
      "count": 1817,
      "max": [
        1.0,
        0.9999998807907104,
        0.9999998807907104
      ],
      "min": [
        -1.0,
        -1.0,
        -0.9999998807907104
      ],
      "type": "VEC3"
    },
    {
      "bufferView": 1,
      "byteOffset": 5600,
      "componentType": 5126,
      "count": 1817,
      "max": [
        1.8424899578094482,
        1.952589988708496
      ],
      "min": [
        -0.4257949888706207,
        -2.060379981994629
      ],
      "type": "VEC2"
    },
    {
      "bufferView": 0,
      "byteOffset": 6396,
      "componentType": 5125,
      "count": 3012,
      "type": "SCALAR"
    },
    {
      "bufferView": 2,
      "byteOffset": 60408,
      "componentType": 5126,
      "count": 36,
      "max": [
        -277.8800048828125,
        1126.77001953125,
        2409.070068359375
      ],
      "min": [
        -375.5260009765625,
        1120.3499755859375,
        2251.6298828125
      ],
      "type": "VEC3"
    },
    {
      "bufferView": 2,
      "byteOffset": 60840,
      "componentType": 5126,
      "count": 36,
      "max": [
        0.012238397262990475,
        -0.9998237490653992,
        0.01873469538986683
      ],
      "min": [
        -0.005542408674955368,
        -0.9999988675117493,
        -0.008367816917598248
      ],
      "type": "VEC3"
    },
    {
      "bufferView": 1,
      "byteOffset": 20136,
      "componentType": 5126,
      "count": 36,
      "max": [
        8.472779882140458e-05,
        0.003386510070413351
      ],
      "min": [
        -0.0033818299416452646,
        -2.634169959492283e-06
      ],
      "type": "VEC2"
    },
    {
      "bufferView": 0,
      "byteOffset": 18444,
      "componentType": 5125,
      "count": 36,
      "type": "SCALAR"
    },
    {
      "bufferView": 2,
      "byteOffset": 61272,
      "componentType": 5126,
      "count": 5513,
      "max": [
        994.5050048828125,
        2172.64990234375,
        1863.6199951171875
      ],
      "min": [
        -992.6160278320313,
        -2266.469970703125,
        1015.1699829101563
      ],
      "type": "VEC3"
    },
    {
      "bufferView": 2,
      "byteOffset": 127428,
      "componentType": 5126,
      "count": 5513,
      "max": [
        1.0,
        0.995182991027832,
        0.995182991027832
      ],
      "min": [
        -1.0,
        -0.995182991027832,
        -0.995182991027832
      ],
      "type": "VEC3"
    },
    {
      "bufferView": 1,
      "byteOffset": 20424,
      "componentType": 5126,
      "count": 5513,
      "max": [
        1.8755199909210205,
        1.1203299760818481
      ],
      "min": [
        -1.8606300354003906,
        -0.7098109722137451
      ],
      "type": "VEC2"
    },
    {
      "bufferView": 0,
      "byteOffset": 18588,
      "componentType": 5125,
      "count": 8541,
      "type": "SCALAR"
    },
    {
      "bufferView": 2,
      "byteOffset": 193584,
      "componentType": 5126,
      "count": 7382,
      "max": [
        1211.5,
        2318.1298828125,
        2368.639892578125
      ],
      "min": [
        -1215.0,
        -2327.0,
        0.0
      ],
      "type": "VEC3"
    },
    {
      "bufferView": 2,
      "byteOffset": 282168,
      "componentType": 5126,
      "count": 7382,
      "max": [
        1.0,
        1.0,
        1.0
      ],
      "min": [
        -1.0,
        -1.0,
        -1.0
      ],
      "type": "VEC3"
    },
    {
      "bufferView": 1,
      "byteOffset": 64528,
      "componentType": 5126,
      "count": 7382,
      "max": [
        172.11199951171875,
        164.13800048828125
      ],
      "min": [
        -173.10800170898438,
        -96.62339782714844
      ],
      "type": "VEC2"
    },
    {
      "bufferView": 0,
      "byteOffset": 52752,
      "componentType": 5125,
      "count": 17298,
      "type": "SCALAR"
    }
  ],
  "asset": {
    "extras": {
      "author": "lm9241221 (https://sketchfab.com/lm9241221)",
      "license": "CC-BY-4.0 (http://creativecommons.org/licenses/by/4.0/)",
      "source": "https://sketchfab.com/3d-models/dozor-b-low-poly-a27bb314cf9b4f59bc873833f2245d60",
      "title": "DOZOR-B (LOW POLY)"
    },
    "generator": "Sketchfab-13.24.1",
    "version": "2.0"
  },
  "bufferViews": [
    {
      "buffer": 0,
      "byteLength": 121944,
      "name": "floatBufferViews",
      "target": 34963
    },
    {
      "buffer": 0,
      "byteLength": 123584,
      "byteOffset": 121944,
      "byteStride": 8,
      "name": "floatBufferViews",
      "target": 34962
    },
    {
      "buffer": 0,
      "byteLength": 370752,
      "byteOffset": 245528,
      "byteStride": 12,
      "name": "floatBufferViews",
      "target": 34962
    }
  ],
  "buffers": [
    {
      "byteLength": 616280,
      "uri": "scene.bin"
    }
  ],
  "extensionsUsed": [
    "KHR_materials_clearcoat"
  ],
  "images": [
    {
      "uri": "textures/M_461036f8_dds1_baseColor.png"
    },
    {
      "uri": "textures/M_461036f8_dds1_metallicRoughness.png"
    },
    {
      "uri": "textures/Translucent_Glass_Gold_baseColor.jpeg"
    },
    {
      "uri": "textures/Translucent_Glass_Sky_Reflection_baseColor.jpeg"
    },
    {
      "uri": "textures/ukrjeep_dozer_c_snow_baseColor.jpeg"
    },
    {
      "uri": "textures/ukrjeep_dozer_c_snow_metallicRoughness.png"
    }
  ],
  "materials": [
    {
      "doubleSided": true,
      "name": "Color_M07",
      "pbrMetallicRoughness": {
        "baseColorFactor": [
          0.227451,
          0.227451,
          0.227451,
          1.0
        ],
        "metallicFactor": 0.0
      }
    },
    {
      "doubleSided": true,
      "name": "FrontColor",
      "pbrMetallicRoughness": {
        "metallicFactor": 0.0
      }
    },
    {
      "doubleSided": true,
      "name": "M_461036f8_dds1",
      "pbrMetallicRoughness": {
        "baseColorTexture": {
          "index": 0
        },
        "metallicRoughnessTexture": {
          "index": 1
        }
      }
    },
    {
      "alphaMode": "BLEND",
      "doubleSided": true,
      "extensions": {
        "KHR_materials_clearcoat": {
          "clearcoatFactor": 1.0,
          "clearcoatRoughnessFactor": 0.04
        }
      },
      "name": "Translucent_Glass_Gold",
      "pbrMetallicRoughness": {
        "baseColorFactor": [
          1.0,
          1.0,
          1.0,
          0.6
        ],
        "baseColorTexture": {
          "index": 2
        },
        "roughnessFactor": 0.0
      }
    },
    {
      "alphaMode": "BLEND",
      "doubleSided": true,
      "name": "Translucent_Glass_Sky_Reflection",
      "pbrMetallicRoughness": {
        "baseColorFactor": [
          1.0,
          1.0,
          1.0,
          0.01
        ],
        "baseColorTexture": {
          "index": 3
        },
        "roughnessFactor": 0.0
      }
    },
    {
      "alphaMode": "BLEND",
      "doubleSided": true,
      "name": "glass1",
      "pbrMetallicRoughness": {
        "baseColorFactor": [
          0.0,
          0.0,
          0.0,
          0.8
        ],
        "metallicFactor": 0.0
      }
    },
    {
      "doubleSided": true,
      "name": "ukrjeep_dozer_c_snow",
      "pbrMetallicRoughness": {
        "baseColorTexture": {
          "index": 4
        },
        "metallicRoughnessTexture": {
          "index": 5
        },
        "roughnessFactor": 0.7238117297119381
      }
    }
  ],
  "meshes": [
    {
      "name": "Object_0",
      "primitives": [
        {
          "attributes": {
            "NORMAL": 1,
            "POSITION": 0,
            "TEXCOORD_0": 2
          },
          "indices": 3,
          "material": 5,
          "mode": 4
        }
      ]
    },
    {
      "name": "Object_1",
      "primitives": [
        {
          "attributes": {
            "NORMAL": 5,
            "POSITION": 4,
            "TEXCOORD_0": 6
          },
          "indices": 7,
          "material": 0,
          "mode": 4
        }
      ]
    },
    {
      "name": "Object_2",
      "primitives": [
        {
          "attributes": {
            "NORMAL": 9,
            "POSITION": 8,
            "TEXCOORD_0": 10
          },
          "indices": 11,
          "material": 1,
          "mode": 4
        }
      ]
    },
    {
      "name": "Object_3",
      "primitives": [
        {
          "attributes": {
            "NORMAL": 13,
            "POSITION": 12,
            "TEXCOORD_0": 14
          },
          "indices": 15,
          "material": 2,
          "mode": 4
        }
      ]
    },
    {
      "name": "Object_4",
      "primitives": [
        {
          "attributes": {
            "NORMAL": 17,
            "POSITION": 16,
            "TEXCOORD_0": 18
          },
          "indices": 19,
          "material": 3,
          "mode": 4
        }
      ]
    },
    {
      "name": "Object_5",
      "primitives": [
        {
          "attributes": {
            "NORMAL": 21,
            "POSITION": 20,
            "TEXCOORD_0": 22
          },
          "indices": 23,
          "material": 4,
          "mode": 4
        }
      ]
    },
    {
      "name": "Object_6",
      "primitives": [
        {
          "attributes": {
            "NORMAL": 25,
            "POSITION": 24,
            "TEXCOORD_0": 26
          },
          "indices": 27,
          "material": 6,
          "mode": 4
        }
      ]
    }
  ],
  "nodes": [
    {
      "children": [
        1
      ],
      "matrix": [
        1.0,
        0.0,
        0.0,
        0.0,
        0.0,
        2.220446049250313e-16,
        -1.0,
        0.0,
        0.0,
        1.0,
        2.220446049250313e-16,
        0.0,
        0.0,
        0.0,
        0.0,
        1.0
      ],
      "name": "Sketchfab_model"
    },
    {
      "children": [
        2,
        3,
        4,
        5,
        6,
        7,
        8
      ],
      "name": "DOZOR-B (LOW POLY).obj.cleaner.materialmerger.gles"
    },
    {
      "mesh": 0,
      "name": "Object_2"
    },
    {
      "mesh": 1,
      "name": "Object_3"
    },
    {
      "mesh": 2,
      "name": "Object_4"
    },
    {
      "mesh": 3,
      "name": "Object_5"
    },
    {
      "mesh": 4,
      "name": "Object_6"
    },
    {
      "mesh": 5,
      "name": "Object_7"
    },
    {
      "mesh": 6,
      "name": "Object_8"
    }
  ],
  "samplers": [
    {
      "magFilter": 9729,
      "minFilter": 9987,
      "wrapS": 10497,
      "wrapT": 10497
    }
  ],
  "scene": 0,
  "scenes": [
    {
      "name": "Sketchfab_Scene",
      "nodes": [
        0
      ]
    }
  ],
  "textures": [
    {
      "sampler": 0,
      "source": 0
    },
    {
      "sampler": 0,
      "source": 1
    },
    {
      "sampler": 0,
      "source": 2
    },
    {
      "sampler": 0,
      "source": 3
    },
    {
      "sampler": 0,
      "source": 4
    },
    {
      "sampler": 0,
      "source": 5
    }
  ]
}
