{
  "accessors": [
    {
      "bufferView": 2,
      "componentType": 5126,
      "count": 5355,
      "max": [
        0.28222692012786865,
        0.5318523049354553,
        0.4199044108390808
      ],
      "min": [
        -0.35324621200561523,
        -0.43810945749282837,
        -0.16871458292007446
      ],
      "type": "VEC3"
    },
    {
      "bufferView": 2,
      "byteOffset": 64260,
      "componentType": 5126,
      "count": 5355,
      "max": [
        1.0,
        1.0,
        1.0
      ],
      "min": [
        -1.0,
        -1.0,
        -1.0
      ],
      "type": "VEC3"
    },
    {
      "bufferView": 3,
      "componentType": 5126,
      "count": 5355,
      "max": [
        1.0,
        1.0,
        1.0,
        1.0
      ],
      "min": [
        -1.0,
        -1.0,
        -1.0,
        -1.0
      ],
      "type": "VEC4"
    },
    {
      "bufferView": 1,
      "componentType": 5126,
      "count": 5355,
      "max": [
        0.9912109375,
        0.9970703125
      ],
      "min": [
        0.0029296875,
        0.00927734375
      ],
      "type": "VEC2"
    },
    {
      "bufferView": 1,
      "byteOffset": 42840,
      "componentType": 5126,
      "count": 5355,
      "max": [
        0.0,
        1.0
      ],
      "min": [
        -78.3125,
        -330.25
      ],
      "type": "VEC2"
    },
    {
      "bufferView": 1,
      "byteOffset": 85680,
      "componentType": 5126,
      "count": 5355,
      "max": [
        0.0,
        1.0
      ],
      "min": [
        -78.3125,
        -330.25
      ],
      "type": "VEC2"
    },
    {
      "bufferView": 1,
      "byteOffset": 128520,
      "componentType": 5126,
      "count": 5355,
      "max": [
        0.0,
        1.0
      ],
      "min": [
        -78.3125,
        -330.25
      ],
      "type": "VEC2"
    },
    {
      "bufferView": 1,
      "byteOffset": 171360,
      "componentType": 5126,
      "count": 5355,
      "max": [
        0.9912109375,
        0.9970703125
      ],
      "min": [
        0.0029296875,
        0.00927734375
      ],
      "type": "VEC2"
    },
    {
      "bufferView": 1,
      "byteOffset": 214200,
      "componentType": 5126,
      "count": 5355,
      "max": [
        0.9912109375,
        0.9970703125
      ],
      "min": [
        0.0029296875,
        0.00927734375
      ],
      "type": "VEC2"
    },
    {
      "bufferView": 1,
      "byteOffset": 257040,
      "componentType": 5126,
      "count": 5355,
      "max": [
        0.9912109375,
        0.9970703125
      ],
      "min": [
        0.0029296875,
        0.00927734375
      ],
      "type": "VEC2"
    },
    {
      "bufferView": 1,
      "byteOffset": 299880,
      "componentType": 5126,
      "count": 5355,
      "max": [
        0.9912109375,
        0.9970703125
      ],
      "min": [
        0.0029296875,
        0.00927734375
      ],
      "type": "VEC2"
    },
    {
      "bufferView": 0,
      "componentType": 5125,
      "count": 12735,
      "type": "SCALAR"
    }
  ],
  "asset": {
    "extras": {
      "author": "xlisov (https://sketchfab.com/xlisov74)",
      "license": "CC-BY-NC-4.0 (http://creativecommons.org/licenses/by-nc/4.0/)",
      "source": "https://sketchfab.com/3d-models/ba-mk-19-ce0ed3ac09334b7baf41a4708a49d9eb",
      "title": "[BA] Mk 19"
    },
    "generator": "Sketchfab-16.74.0",
    "version": "2.0"
  },
  "bufferViews": [
    {
      "buffer": 0,
      "byteLength": 50940,
      "name": "floatBufferViews",
      "target": 34963
    },
    {
      "buffer": 0,
      "byteLength": 342720,
      "byteOffset": 50940,
      "byteStride": 8,
      "name": "floatBufferViews",
      "target": 34962
    },
    {
      "buffer": 0,
      "byteLength": 128520,
      "byteOffset": 393660,
      "byteStride": 12,
      "name": "floatBufferViews",
      "target": 34962
    },
    {
      "buffer": 0,
      "byteLength": 85680,
      "byteOffset": 522180,
      "byteStride": 16,
      "name": "floatBufferViews",
      "target": 34962
    }
  ],
  "buffers": [
    {
      "byteLength": 607860,
      "uri": "scene.bin"
    }
  ],
  "extensionsUsed": [
    "KHR_materials_specular"
  ],
  "images": [
    {
      "uri": "textures/body_baseColor.png"
    },
    {
      "uri": "textures/body_metallicRoughness.png"
    },
    {
      "uri": "textures/body_normal.png"
    },
    {
      "uri": "textures/body_specularf0.png"
    }
  ],
  "materials": [
    {
      "alphaMode": "BLEND",
      "doubleSided": true,
      "extensions": {
        "KHR_materials_specular": {
          "specularColorFactor": [
            1.0,
            1.0,
            1.0
          ],
          "specularFactor": 1.0,
          "specularTexture": {
            "index": 3
          }
        }
      },
      "name": "body",
      "normalTexture": {
        "index": 2
      },
      "pbrMetallicRoughness": {
        "baseColorTexture": {
          "index": 0
        },
        "metallicRoughnessTexture": {
          "index": 1
        },
        "roughnessFactor": 0.5
      }
    }
  ],
  "meshes": [
    {
      "name": "Object_0",
      "primitives": [
        {
          "attributes": {
            "NORMAL": 1,
            "POSITION": 0,
            "TANGENT": 2,
            "TEXCOORD_0": 3,
            "TEXCOORD_1": 4,
            "TEXCOORD_2": 5,
            "TEXCOORD_3": 6,
            "TEXCOORD_4": 7,
            "TEXCOORD_5": 8,
            "TEXCOORD_6": 9,
            "TEXCOORD_7": 10
          },
          "indices": 11,
          "material": 0,
          "mode": 4
        }
      ]
    }
  ],
  "nodes": [
    {
      "children": [
        1
      ],
      "matrix": [
        2.220446049250313e-16,
        -2.220446049250313e-16,
        1.0,
        0.0,
        1.0,
        4.930380657631324e-32,
        -2.220446049250313e-16,
        0.0,
        0.0,
        1.0,
        2.220446049250313e-16,
        0.0,
        0.0,
        0.0,
        0.0,
        1.0
      ],
      "name": "Sketchfab_model"
    },
    {
      "children": [
        2
      ],
      "name": "root"
    },
    {
      "children": [
        3
      ],
      "matrix": [
        1.0,
        0.0,
        0.0,
        0.0,
        0.0,
        2.220446049250313e-16,
        1.0,
        0.0,
        0.0,
        -1.0,
        2.220446049250313e-16,
        0.0,
        0.0,
        0.0,
        0.0,
        1.0
      ],
      "name": "GLTF_SceneRootNode"
    },
    {
      "children": [
        4
      ],
      "matrix": [
        0.009999999776482582,
        0.0,
        0.0,
        0.0,
        0.0,
        0.0,
        0.009999999776482582,
        0.0,
        0.0,
        -0.009999999776482582,
        0.0,
        0.0,
        0.000586596317589283,
        0.004199043847620487,
        -0.0004687144246418029,
        1.0
      ],
      "name": "MK19_TRIPOD_0"
    },
    {
      "mesh": 0,
      "name": "Object_4"
    }
  ],
  "samplers": [
    {
      "magFilter": 9729,
      "minFilter": 9987,
      "wrapS": 10497,
      "wrapT": 10497
    }
  ],
  "scene": 0,
  "scenes": [
    {
      "name": "Sketchfab_Scene",
      "nodes": [
        0
      ]
    }
  ],
  "textures": [
    {
      "sampler": 0,
      "source": 0
    },
    {
      "sampler": 0,
      "source": 1
    },
    {
      "sampler": 0,
      "source": 2
    },
    {
      "sampler": 0,
      "source": 3
    }
  ]
}
